<mxfile host="app.diagrams.net" modified="2024-07-04T13:07:04.737Z" agent="Mozilla/5.0 (Macintosh; Intel Mac OS X 10_15_7) AppleWebKit/537.36 (KHTML, like Gecko) Chrome/125.0.0.0 Safari/537.36" version="24.6.4" etag="sldaTVAb-L66a-9msLoW" type="github">
  <diagram name="페이지-1" id="Jn4lcpcdiRvrkMQKUxo5">
    <mxGraphModel>
      <root>
        <mxCell id="0" />
        <mxCell id="1" parent="0" />
      </root>
    </mxGraphModel>
  </diagram>
</mxfile>
